<?xml version="1.0" encoding="UTF-8"?>
<svg id="Calque_2" data-name="Calque 2" xmlns="http://www.w3.org/2000/svg" viewBox="0 0 1217.6 474.35">
  <defs>
    <style>
      .cls-1 {
        letter-spacing: 0em;
      }

      .cls-2 {
        fill: #f3fbff;
      }

      .cls-3 {
        font-family: SpaceGrotesk-Regular, 'Space Grotesk';
        font-size: 35.07px;
        font-variation-settings: 'wght' 400;
      }

      .cls-4 {
        letter-spacing: 0em;
      }

      .cls-5 {
        letter-spacing: 0em;
      }

      .cls-6 {
        letter-spacing: 0em;
      }

      .cls-7 {
        letter-spacing: -.02em;
      }

      .cls-8 {
        letter-spacing: -.03em;
      }

      .cls-9 {
        letter-spacing: -.02em;
      }

      .cls-10 {
        letter-spacing: -.02em;
      }

      .cls-11 {
        letter-spacing: -.02em;
      }

      .cls-12 {
        letter-spacing: -.02em;
      }

      .cls-13 {
        letter-spacing: -.02em;
      }

      .cls-14 {
        letter-spacing: -.02em;
      }

      .cls-15 {
        letter-spacing: -.02em;
      }

      .cls-16 {
        letter-spacing: -.01em;
      }

      .cls-17 {
        letter-spacing: -.01em;
      }

      .cls-18 {
        letter-spacing: -.01em;
      }

      .cls-19 {
        letter-spacing: -.01em;
      }

      .cls-20 {
        letter-spacing: -.04em;
      }

      .cls-21 {
        letter-spacing: -.03em;
      }

      .cls-22 {
        letter-spacing: -.03em;
      }

      .cls-23 {
        letter-spacing: -.03em;
      }

      .cls-24 {
        letter-spacing: -.03em;
      }

      .cls-25 {
        letter-spacing: -.03em;
      }

      .cls-26 {
        letter-spacing: 0em;
      }

      .cls-27 {
        letter-spacing: -.01em;
      }

      .cls-28 {
        letter-spacing: -.01em;
      }

      .cls-29 {
        letter-spacing: -.01em;
      }

      .cls-30 {
        letter-spacing: 0em;
      }

      .cls-31 {
        letter-spacing: 0em;
      }

      .cls-32 {
        letter-spacing: 0em;
      }

      .cls-33 {
        letter-spacing: 0em;
      }

      .cls-34 {
        letter-spacing: 0em;
      }

      .cls-35 {
        letter-spacing: 0em;
      }

      .cls-36 {
        letter-spacing: 0em;
      }

      .cls-37 {
        fill: #1f1866;
        font-family: SpaceGrotesk-Bold, 'Space Grotesk';
        font-size: 39.45px;
        font-variation-settings: 'wght' 700;
        font-weight: 700;
      }
    </style>
  </defs>
  <g id="Calque_1-2" data-name="Calque 1">
    <path class="cls-2" d="M1207.6,474.35H10c-5.52,0-10-4.48-10-10V10C0,4.48,4.48,0,10,0h1063.8c4.86,0,9.02,3.5,9.85,8.29l31,178.3c.83,4.79,4.99,8.29,9.85,8.29h31.93c4.78,0,8.89,3.38,9.81,8.07l51.17,259.48c1.22,6.18-3.51,11.93-9.81,11.93Z"/>
    <text transform="translate(137.87 99.21)"><tspan class="cls-37"><tspan x="0" y="0">St</tspan><tspan class="cls-29" x="41.9" y="0">r</tspan><tspan x="57.05" y="0">ange Hybrid</tspan><tspan class="cls-20" x="288.76" y="0">a</tspan><tspan x="310.14" y="0">tions</tspan></tspan><tspan class="cls-3"><tspan x="0" y="89.43">Fusing design and scul</tspan><tspan class="cls-12" x="386.71" y="89.43">p</tspan><tspan x="408.6" y="89.43">tu</tspan><tspan class="cls-14" x="446.19" y="89.43">r</tspan><tspan class="cls-34" x="458.78" y="89.43">e</tspan><tspan class="cls-22" x="479.3" y="89.43">,</tspan><tspan x="486.94" y="89.43" xml:space="preserve"> these pieces in l</tspan><tspan class="cls-17" x="771.46" y="89.43">a</tspan><tspan x="791.13" y="89.43">cque</tspan><tspan class="cls-9" x="876.92" y="89.43">r</tspan><tspan class="cls-5" x="889.5" y="89.43">ed </tspan></tspan><tspan class="cls-3"><tspan x="0" y="131.51">m</tspan><tspan class="cls-12" x="30.16" y="131.51">e</tspan><tspan class="cls-36" x="50.22" y="131.51">t</tspan><tspan x="66.25" y="131.51">al</tspan><tspan class="cls-23" x="95" y="131.51">,</tspan><tspan class="cls-1" x="102.65" y="131.51" xml:space="preserve"> polished alumi</tspan><tspan class="cls-35" x="354.41" y="131.51">n</tspan><tspan class="cls-1" x="375.63" y="131.51">um and brushed </tspan><tspan class="cls-28" x="659.13" y="131.51">s</tspan><tspan class="cls-14" x="677.23" y="131.51">t</tspan><tspan x="692.73" y="131.51">eel </tspan><tspan class="cls-26" x="751.86" y="131.51">(</tspan><tspan x="764.97" y="131.51">201</tspan><tspan class="cls-32" x="823.26" y="131.51">6</tspan><tspan x="844.37" y="131.51">) </tspan></tspan><tspan class="cls-3"><tspan x="0" y="173.6">t</tspan><tspan class="cls-15" x="16.13" y="173.6">r</tspan><tspan class="cls-6" x="28.76" y="173.6">an</tspan><tspan class="cls-27" x="70.42" y="173.6">s</tspan><tspan class="cls-7" x="88.52" y="173.6">f</tspan><tspan x="103.18" y="173.6">orm </tspan><tspan class="cls-10" x="177.24" y="173.6">ev</tspan><tspan x="215.5" y="173.6">eryd</tspan><tspan class="cls-16" x="293.53" y="173.6">a</tspan><tspan x="313.24" y="173.6">y obje</tspan><tspan class="cls-12" x="417.4" y="173.6">c</tspan><tspan x="437.67" y="173.6">ts i</tspan><tspan class="cls-18" x="489.89" y="173.6">n</tspan><tspan class="cls-14" x="510.9" y="173.6">t</tspan><tspan x="526.4" y="173.6">o biomorphic c</tspan><tspan class="cls-14" x="778.62" y="173.6">r</tspan><tspan class="cls-4" x="791.21" y="173.6">e</tspan><tspan class="cls-21" x="811.97" y="173.6">a</tspan><tspan x="831.01" y="173.6">tu</tspan><tspan class="cls-14" x="868.61" y="173.6">r</tspan><tspan x="881.2" y="173.6">es</tspan><tspan class="cls-24" x="920.44" y="173.6">.</tspan></tspan><tspan class="cls-3"><tspan class="cls-31" x="0" y="215.68">T</tspan><tspan class="cls-6" x="20.31" y="215.68">im N</tspan><tspan class="cls-32" x="91.36" y="215.68">e</tspan><tspan class="cls-26" x="111.77" y="215.68">w</tspan><tspan x="139.68" y="215.68">son </tspan><tspan class="cls-23" x="210.35" y="215.68">e</tspan><tspan x="229.95" y="215.68">xplo</tspan><tspan class="cls-14" x="303.6" y="215.68">r</tspan><tspan x="316.19" y="215.68">es an unsettling </tspan><tspan class="cls-17" x="594.96" y="215.68">a</tspan><tspan x="614.63" y="215.68">e</tspan><tspan class="cls-28" x="635.39" y="215.68">s</tspan><tspan x="653.49" y="215.68">th</tspan><tspan class="cls-11" x="691.12" y="215.68">e</tspan><tspan x="711.18" y="215.68">ti</tspan><tspan class="cls-33" x="735.9" y="215.68">c</tspan><tspan class="cls-22" x="756.63" y="215.68">,</tspan><tspan x="764.27" y="215.68" xml:space="preserve"> whe</tspan><tspan class="cls-14" x="843.63" y="215.68">r</tspan><tspan x="856.23" y="215.68">e </tspan></tspan><tspan class="cls-3"><tspan x="0" y="257.76">fun</tspan><tspan class="cls-12" x="58.46" y="257.76">c</tspan><tspan x="78.73" y="257.76">tionality </tspan><tspan class="cls-31" x="230.58" y="257.76">f</tspan><tspan class="cls-17" x="245.77" y="257.76">a</tspan><tspan x="265.44" y="257.76">des i</tspan><tspan class="cls-19" x="344.87" y="257.76">n</tspan><tspan class="cls-14" x="365.88" y="257.76">t</tspan><tspan x="381.38" y="257.76">o the b</tspan><tspan class="cls-17" x="502.06" y="257.76">a</tspan><tspan x="521.73" y="257.76">c</tspan><tspan class="cls-25" x="542.7" y="257.76">k</tspan><tspan x="560.66" y="257.76">g</tspan><tspan class="cls-9" x="583.17" y="257.76">r</tspan><tspan class="cls-5" x="595.76" y="257.76">ound in </tspan><tspan class="cls-30" x="731.1" y="257.76">f</tspan><tspan class="cls-8" x="746.28" y="257.76">a</tspan><tspan class="cls-12" x="765.5" y="257.76">v</tspan><tspan x="783.7" y="257.76">or </tspan><tspan class="cls-12" x="827.61" y="257.76">o</tspan><tspan x="848.58" y="257.76">f an </tspan></tspan><tspan class="cls-3"><tspan x="0" y="299.85">almo</tspan><tspan class="cls-27" x="80.59" y="299.85">s</tspan><tspan x="98.69" y="299.85">t o</tspan><tspan class="cls-13" x="145.5" y="299.85">r</tspan><tspan x="158.09" y="299.85">ganic p</tspan><tspan class="cls-14" x="283.43" y="299.85">r</tspan><tspan x="296.02" y="299.85">esenc</tspan><tspan class="cls-34" x="398.5" y="299.85">e</tspan><tspan class="cls-22" x="419.01" y="299.85">.</tspan></tspan></text>
  </g>
</svg>