<?xml version="1.0" encoding="UTF-8"?>
<svg id="Calque_2" data-name="Calque 2" xmlns="http://www.w3.org/2000/svg" viewBox="0 0 1217.6 474.35">
  <defs>
    <style>
      .cls-1 {
        letter-spacing: 0em;
      }

      .cls-2 {
        fill: #f3fbff;
      }

      .cls-3 {
        font-family: SpaceGrotesk-Regular, 'Space Grotesk';
        font-size: 35.07px;
        font-variation-settings: 'wght' 400;
      }

      .cls-4 {
        letter-spacing: 0em;
      }

      .cls-5 {
        letter-spacing: 0em;
      }

      .cls-6 {
        letter-spacing: 0em;
      }

      .cls-7 {
        letter-spacing: -.03em;
      }

      .cls-8 {
        letter-spacing: -.02em;
      }

      .cls-9 {
        letter-spacing: -.02em;
      }

      .cls-10 {
        letter-spacing: -.02em;
      }

      .cls-11 {
        letter-spacing: -.02em;
      }

      .cls-12 {
        letter-spacing: -.02em;
      }

      .cls-13 {
        letter-spacing: -.02em;
      }

      .cls-14 {
        letter-spacing: -.02em;
      }

      .cls-15 {
        letter-spacing: -.02em;
      }

      .cls-16 {
        letter-spacing: -.02em;
      }

      .cls-17 {
        letter-spacing: -.01em;
      }

      .cls-18 {
        letter-spacing: -.01em;
      }

      .cls-19 {
        letter-spacing: -.02em;
      }

      .cls-20 {
        letter-spacing: -.02em;
      }

      .cls-21 {
        letter-spacing: -.01em;
      }

      .cls-22 {
        letter-spacing: -.01em;
      }

      .cls-23 {
        letter-spacing: -.03em;
      }

      .cls-24 {
        letter-spacing: -.03em;
      }

      .cls-25 {
        letter-spacing: -.03em;
      }

      .cls-26 {
        letter-spacing: -.03em;
      }

      .cls-27 {
        letter-spacing: -.03em;
      }

      .cls-28 {
        letter-spacing: -.01em;
      }

      .cls-29 {
        letter-spacing: -.01em;
      }

      .cls-30 {
        letter-spacing: 0em;
      }

      .cls-31 {
        letter-spacing: 0em;
      }

      .cls-32 {
        letter-spacing: 0em;
      }

      .cls-33 {
        letter-spacing: 0em;
      }

      .cls-34 {
        letter-spacing: 0em;
      }

      .cls-35 {
        letter-spacing: 0em;
      }

      .cls-36 {
        fill: #1f1866;
        font-family: SpaceGrotesk-Bold, 'Space Grotesk';
        font-size: 39.45px;
        font-variation-settings: 'wght' 700;
        font-weight: 700;
      }
    </style>
  </defs>
  <g id="Calque_1-2" data-name="Calque 1">
    <path class="cls-2" d="M1207.6,474.35H10c-5.52,0-10-4.48-10-10V10C0,4.48,4.48,0,10,0h1063.8c4.86,0,9.02,3.5,9.85,8.29l31,178.3c.83,4.79,4.99,8.29,9.85,8.29h31.93c4.78,0,8.89,3.38,9.81,8.07l51.17,259.48c1.22,6.18-3.51,11.93-9.81,11.93Z"/>
    <text transform="translate(97.99 120.26)"><tspan class="cls-36"><tspan x="0" y="0">Dome</tspan><tspan class="cls-32" x="106.88" y="0">s</tspan><tspan x="127.16" y="0">tic m</tspan><tspan class="cls-20" x="222.48" y="0">e</tspan><tspan x="244.61" y="0">tamorphoses</tspan></tspan><tspan class="cls-3"><tspan x="0" y="89.43">L</tspan><tspan class="cls-22" x="19.15" y="89.43">a</tspan><tspan x="38.82" y="89.43">cque</tspan><tspan class="cls-13" x="124.6" y="89.43">r</tspan><tspan x="137.19" y="89.43">ed </tspan><tspan class="cls-14" x="189.55" y="89.43">r</tspan><tspan x="202.14" y="89.43">esin</tspan><tspan class="cls-25" x="271.47" y="89.43">,</tspan><tspan x="279.12" y="89.43" xml:space="preserve"> bl</tspan><tspan class="cls-22" x="319.31" y="89.43">a</tspan><tspan x="338.98" y="89.43">c</tspan><tspan class="cls-27" x="359.96" y="89.43">k</tspan><tspan x="377.91" y="89.43">ened m</tspan><tspan class="cls-10" x="502.69" y="89.43">e</tspan><tspan class="cls-35" x="522.75" y="89.43">t</tspan><tspan x="538.78" y="89.43">al and i</tspan><tspan class="cls-21" x="658.4" y="89.43">n</tspan><tspan class="cls-14" x="679.4" y="89.43">t</tspan><tspan class="cls-5" x="694.91" y="89.43">eg</tspan><tspan class="cls-15" x="738.18" y="89.43">r</tspan><tspan class="cls-23" x="750.81" y="89.43">a</tspan><tspan class="cls-14" x="769.85" y="89.43">t</tspan><tspan x="785.35" y="89.43">ed lig</tspan><tspan class="cls-21" x="877.41" y="89.43">h</tspan><tspan x="898.42" y="89.43">t ma</tspan><tspan class="cls-27" x="973.88" y="89.43">k</tspan><tspan x="991.84" y="89.43">e </tspan></tspan><tspan class="cls-3"><tspan x="0" y="131.51">up these scul</tspan><tspan class="cls-12" x="229.21" y="131.51">p</tspan><tspan x="251.1" y="131.51">tu</tspan><tspan class="cls-14" x="288.69" y="131.51">r</tspan><tspan x="301.28" y="131.51">es f</tspan><tspan class="cls-14" x="365.04" y="131.51">r</tspan><tspan class="cls-6" x="377.63" y="131.51">om 2001</tspan><tspan class="cls-24" x="519.24" y="131.51">,</tspan><tspan x="526.89" y="131.51" xml:space="preserve"> in which furnitu</tspan><tspan class="cls-8" x="802.53" y="131.51">r</tspan><tspan x="815.12" y="131.51">e becomes </tspan></tspan><tspan class="cls-3"><tspan x="0" y="173.6">a living e</tspan><tspan class="cls-22" x="147.64" y="173.6">n</tspan><tspan x="168.65" y="173.6">tity</tspan><tspan class="cls-24" x="230.97" y="173.6">.</tspan><tspan x="238.68" y="173.6" xml:space="preserve"> Half</tspan><tspan class="cls-30" x="314.96" y="173.6">w</tspan><tspan class="cls-17" x="342.73" y="173.6">a</tspan><tspan class="cls-1" x="362.44" y="173.6">y b</tspan><tspan class="cls-9" x="415.5" y="173.6">e</tspan><tspan x="435.56" y="173.6">t</tspan><tspan class="cls-29" x="451.7" y="173.6">w</tspan><tspan class="cls-4" x="479.44" y="173.6">een fun</tspan><tspan class="cls-12" x="609.93" y="173.6">c</tspan><tspan x="630.2" y="173.6">tional obje</tspan><tspan class="cls-12" x="809.55" y="173.6">c</tspan><tspan x="829.82" y="173.6">t and </tspan></tspan><tspan class="cls-3"><tspan class="cls-34" x="0" y="215.68">m</tspan><tspan class="cls-1" x="29.88" y="215.68">y</tspan><tspan class="cls-28" x="51.34" y="215.68">s</tspan><tspan x="69.44" y="215.68">tical </tspan><tspan class="cls-31" x="152.9" y="215.68">w</tspan><tspan class="cls-6" x="180.64" y="215.68">ork </tspan><tspan class="cls-9" x="243.42" y="215.68">o</tspan><tspan x="264.39" y="215.68">f art</tspan><tspan class="cls-25" x="338.42" y="215.68">,</tspan><tspan x="346.07" y="215.68" xml:space="preserve"> they blur the boundary b</tspan><tspan class="cls-11" x="782.47" y="215.68">e</tspan><tspan x="802.53" y="215.68">t</tspan><tspan class="cls-31" x="818.66" y="215.68">w</tspan><tspan x="846.4" y="215.68">een the </tspan></tspan><tspan class="cls-3"><tspan x="0" y="257.76">dome</tspan><tspan class="cls-28" x="95.18" y="257.76">s</tspan><tspan x="113.28" y="257.76">tic and scul</tspan><tspan class="cls-12" x="310.75" y="257.76">p</tspan><tspan x="332.64" y="257.76">tu</tspan><tspan class="cls-16" x="370.23" y="257.76">r</tspan><tspan x="382.85" y="257.76">al </tspan><tspan class="cls-25" x="420.62" y="257.76">e</tspan><tspan x="440.23" y="257.76">xt</tspan><tspan class="cls-15" x="477.16" y="257.76">r</tspan><tspan class="cls-7" x="489.78" y="257.76">a</tspan><tspan class="cls-19" x="509" y="257.76">v</tspan><tspan class="cls-18" x="527.34" y="257.76">a</tspan><tspan x="547.02" y="257.76">ganc</tspan><tspan class="cls-33" x="632.17" y="257.76">e</tspan><tspan class="cls-26" x="652.68" y="257.76">.</tspan></tspan></text>
  </g>
</svg>