<?xml version="1.0" encoding="UTF-8"?>
<svg id="Calque_2" data-name="Calque 2" xmlns="http://www.w3.org/2000/svg" viewBox="0 0 1217.6 474.35">
  <defs>
    <style>
      .cls-1 {
        fill: #f3fbff;
      }

      .cls-2 {
        font-family: SpaceGrotesk-Regular, 'Space Grotesk';
        font-size: 35.07px;
        font-variation-settings: 'wght' 400;
      }

      .cls-3 {
        letter-spacing: 0em;
      }

      .cls-4 {
        letter-spacing: 0em;
      }

      .cls-5 {
        letter-spacing: 0em;
      }

      .cls-6 {
        letter-spacing: -.02em;
      }

      .cls-7 {
        letter-spacing: -.02em;
      }

      .cls-8 {
        letter-spacing: -.02em;
      }

      .cls-9 {
        letter-spacing: -.02em;
      }

      .cls-10 {
        letter-spacing: -.02em;
      }

      .cls-11 {
        letter-spacing: -.02em;
      }

      .cls-12 {
        letter-spacing: -.01em;
      }

      .cls-13 {
        letter-spacing: -.01em;
      }

      .cls-14 {
        letter-spacing: -.02em;
      }

      .cls-15 {
        letter-spacing: -.01em;
      }

      .cls-16 {
        letter-spacing: -.01em;
      }

      .cls-17 {
        letter-spacing: -.01em;
      }

      .cls-18 {
        letter-spacing: -.03em;
      }

      .cls-19 {
        letter-spacing: -.03em;
      }

      .cls-20 {
        letter-spacing: -.03em;
      }

      .cls-21 {
        letter-spacing: -.03em;
      }

      .cls-22 {
        letter-spacing: -.03em;
      }

      .cls-23 {
        letter-spacing: -.03em;
      }

      .cls-24 {
        letter-spacing: 0em;
      }

      .cls-25 {
        letter-spacing: 0em;
      }

      .cls-26 {
        letter-spacing: 0em;
      }

      .cls-27 {
        letter-spacing: -.01em;
      }

      .cls-28 {
        letter-spacing: 0em;
      }

      .cls-29 {
        letter-spacing: 0em;
      }

      .cls-30 {
        letter-spacing: 0em;
      }

      .cls-31 {
        letter-spacing: 0em;
      }

      .cls-32 {
        fill: #1f1866;
        font-family: SpaceGrotesk-Bold, 'Space Grotesk';
        font-size: 39.45px;
        font-variation-settings: 'wght' 700;
        font-weight: 700;
      }
    </style>
  </defs>
  <g id="Calque_1-2" data-name="Calque 1">
    <path class="cls-1" d="M1207.6,474.35H10c-5.52,0-10-4.48-10-10V10C0,4.48,4.48,0,10,0h1063.8c4.86,0,9.02,3.5,9.85,8.29l31,178.3c.83,4.79,4.99,8.29,9.85,8.29h31.93c4.78,0,8.89,3.38,9.81,8.07l51.17,259.48c1.22,6.18-3.51,11.93-9.81,11.93Z"/>
    <text transform="translate(105.93 120.26)"><tspan class="cls-32"><tspan x="0" y="0">The ritual </tspan><tspan class="cls-14" x="192.02" y="0">o</tspan><tspan class="cls-5" x="215.53" y="0">f </tspan><tspan class="cls-17" x="242.76" y="0">ev</tspan><tspan x="286.04" y="0">eryd</tspan><tspan class="cls-15" x="373.9" y="0">a</tspan><tspan x="396.15" y="0">y li</tspan><tspan class="cls-14" x="451.46" y="0">f</tspan><tspan x="468.03" y="0">e</tspan></tspan><tspan class="cls-2"><tspan x="0" y="89.43">Using bl</tspan><tspan class="cls-29" x="134.63" y="89.43">o</tspan><tspan x="155.95" y="89.43">wn gl</tspan><tspan class="cls-25" x="245.66" y="89.43">a</tspan><tspan x="265.69" y="89.43">ss</tspan><tspan class="cls-20" x="302.65" y="89.43">,</tspan><tspan x="310.29" y="89.43" xml:space="preserve"> cut cry</tspan><tspan class="cls-27" x="442.54" y="89.43">s</tspan><tspan class="cls-31" x="460.64" y="89.43">t</tspan><tspan x="476.67" y="89.43">al and l</tspan><tspan class="cls-13" x="596.29" y="89.43">a</tspan><tspan x="615.96" y="89.43">cque</tspan><tspan class="cls-9" x="701.74" y="89.43">r</tspan><tspan x="714.33" y="89.43">ed </tspan><tspan class="cls-9" x="766.69" y="89.43">r</tspan><tspan x="779.28" y="89.43">esin</tspan><tspan class="cls-19" x="848.61" y="89.43">,</tspan><tspan class="cls-22" x="856.26" y="89.43"> </tspan><tspan class="cls-28" x="864.36" y="89.43">T</tspan><tspan x="884.67" y="89.43">im </tspan></tspan><tspan class="cls-2"><tspan x="0" y="131.51">N</tspan><tspan class="cls-29" x="23.29" y="131.51">e</tspan><tspan class="cls-24" x="43.7" y="131.51">w</tspan><tspan x="71.61" y="131.51">son </tspan><tspan class="cls-26" x="142.28" y="131.51">s</tspan><tspan class="cls-16" x="160.62" y="131.51">a</tspan><tspan x="180.29" y="131.51">c</tspan><tspan class="cls-10" x="201.26" y="131.51">r</tspan><tspan x="213.89" y="131.51">ali</tspan><tspan class="cls-11" x="251.24" y="131.51">z</tspan><tspan class="cls-4" x="268.84" y="131.51">es </tspan><tspan class="cls-30" x="317.1" y="131.51">h</tspan><tspan x="338.32" y="131.51">ygiene obje</tspan><tspan class="cls-8" x="536.6" y="131.51">c</tspan><tspan x="556.87" y="131.51">ts</tspan><tspan class="cls-19" x="591.48" y="131.51">,</tspan><tspan class="cls-3" x="599.13" y="131.51" xml:space="preserve"> sublim</tspan><tspan class="cls-18" x="718.01" y="131.51">a</tspan><tspan x="737.06" y="131.51">ting them i</tspan><tspan class="cls-16" x="920.96" y="131.51">n</tspan><tspan class="cls-9" x="941.97" y="131.51">t</tspan><tspan x="957.47" y="131.51">o </tspan></tspan><tspan class="cls-2"><tspan x="0" y="173.6">an almo</tspan><tspan class="cls-27" x="131.26" y="173.6">s</tspan><tspan x="149.36" y="173.6">t litu</tspan><tspan class="cls-9" x="229.28" y="173.6">r</tspan><tspan x="241.88" y="173.6">gical dimension</tspan><tspan class="cls-19" x="505.56" y="173.6">.</tspan><tspan class="cls-22" x="513.28" y="173.6"> </tspan><tspan x="521.38" y="173.6">These </tspan><tspan class="cls-29" x="632.51" y="173.6">w</tspan><tspan x="660.25" y="173.6">or</tspan><tspan class="cls-12" x="695.15" y="173.6">k</tspan><tspan x="713.56" y="173.6">s f</tspan><tspan class="cls-9" x="756.56" y="173.6">r</tspan><tspan x="769.15" y="173.6">om 20</tspan><tspan class="cls-23" x="873.62" y="173.6">2</tspan><tspan x="893.75" y="173.6">4 </tspan></tspan><tspan class="cls-2"><tspan class="cls-9" x="0" y="215.68">r</tspan><tspan class="cls-8" x="12.59" y="215.68">ev</tspan><tspan x="50.85" y="215.68">eal the the</tspan><tspan class="cls-18" x="235.18" y="215.68">a</tspan><tspan x="254.22" y="215.68">tricality </tspan><tspan class="cls-8" x="397.09" y="215.68">o</tspan><tspan class="cls-4" x="418.06" y="215.68">f our i</tspan><tspan class="cls-16" x="516.54" y="215.68">n</tspan><tspan x="537.55" y="215.68">tim</tspan><tspan class="cls-18" x="592.43" y="215.68">a</tspan><tspan class="cls-9" x="611.47" y="215.68">t</tspan><tspan class="cls-3" x="626.97" y="215.68">e ge</tspan><tspan class="cls-27" x="700.02" y="215.68">s</tspan><tspan x="718.12" y="215.68">tu</tspan><tspan class="cls-6" x="755.71" y="215.68">r</tspan><tspan class="cls-4" x="768.3" y="215.68">es</tspan><tspan class="cls-19" x="807.55" y="215.68">,</tspan><tspan class="cls-3" x="815.19" y="215.68" xml:space="preserve"> oscill</tspan><tspan class="cls-18" x="911.11" y="215.68">a</tspan><tspan x="930.15" y="215.68">ting </tspan></tspan><tspan class="cls-2"><tspan x="0" y="257.76">b</tspan><tspan class="cls-7" x="22.58" y="257.76">e</tspan><tspan x="42.65" y="257.76">t</tspan><tspan class="cls-29" x="58.78" y="257.76">w</tspan><tspan class="cls-3" x="86.52" y="257.76">een the cult </tspan><tspan class="cls-8" x="302.12" y="257.76">o</tspan><tspan class="cls-4" x="323.1" y="257.76">f the body and the absu</tspan><tspan class="cls-9" x="735.69" y="257.76">r</tspan><tspan x="748.28" y="257.76">dity </tspan><tspan class="cls-8" x="826.06" y="257.76">o</tspan><tspan x="847.04" y="257.76">f ritual</tspan><tspan class="cls-21" x="959.71" y="257.76">.</tspan></tspan></text>
  </g>
</svg>