<?xml version="1.0" encoding="UTF-8"?>
<svg id="Calque_2" data-name="Calque 2" xmlns="http://www.w3.org/2000/svg" viewBox="0 0 1217.6 474.35">
  <defs>
    <style>
      .cls-1 {
        fill: #f3fbff;
      }

      .cls-2 {
        font-family: SpaceGrotesk-Regular, 'Space Grotesk';
        font-size: 35.07px;
        font-variation-settings: 'wght' 400;
      }

      .cls-3 {
        letter-spacing: 0em;
      }

      .cls-4 {
        letter-spacing: 0em;
      }

      .cls-5 {
        letter-spacing: -.07em;
      }

      .cls-6 {
        letter-spacing: -.02em;
      }

      .cls-7 {
        letter-spacing: -.02em;
      }

      .cls-8 {
        letter-spacing: -.02em;
      }

      .cls-9 {
        letter-spacing: -.02em;
      }

      .cls-10 {
        letter-spacing: -.02em;
      }

      .cls-11 {
        letter-spacing: -.02em;
      }

      .cls-12 {
        letter-spacing: -.02em;
      }

      .cls-13 {
        letter-spacing: -.02em;
      }

      .cls-14 {
        letter-spacing: -.01em;
      }

      .cls-15 {
        letter-spacing: -.01em;
      }

      .cls-16 {
        letter-spacing: -.02em;
      }

      .cls-17 {
        letter-spacing: -.03em;
      }

      .cls-18 {
        letter-spacing: -.03em;
      }

      .cls-19 {
        letter-spacing: -.03em;
      }

      .cls-20 {
        letter-spacing: -.03em;
      }

      .cls-21 {
        letter-spacing: -.03em;
      }

      .cls-22 {
        letter-spacing: -.03em;
      }

      .cls-23 {
        letter-spacing: 0em;
      }

      .cls-24 {
        letter-spacing: 0em;
      }

      .cls-25 {
        letter-spacing: -.01em;
      }

      .cls-26 {
        letter-spacing: 0em;
      }

      .cls-27 {
        letter-spacing: 0em;
      }

      .cls-28 {
        letter-spacing: 0em;
      }

      .cls-29 {
        letter-spacing: 0em;
      }

      .cls-30 {
        letter-spacing: 0em;
      }

      .cls-31 {
        letter-spacing: 0em;
      }

      .cls-32 {
        letter-spacing: 0em;
      }

      .cls-33 {
        fill: #1f1866;
        font-family: SpaceGrotesk-Bold, 'Space Grotesk';
        font-size: 39.45px;
        font-variation-settings: 'wght' 700;
        font-weight: 700;
      }
    </style>
  </defs>
  <g id="Calque_1-2" data-name="Calque 1">
    <path class="cls-1" d="M1207.6,474.35H10c-5.52,0-10-4.48-10-10V10C0,4.48,4.48,0,10,0h1063.8c4.86,0,9.02,3.5,9.85,8.29l31,178.3c.83,4.79,4.99,8.29,9.85,8.29h31.93c4.78,0,8.89,3.38,9.81,8.07l51.17,259.48c1.22,6.18-3.51,11.93-9.81,11.93Z"/>
    <text transform="translate(120.86 120.26)"><tspan class="cls-33"><tspan x="0" y="0">The Impossible Fun</tspan><tspan class="cls-16" x="363.68" y="0">c</tspan><tspan x="386.17" y="0">tion</tspan></tspan><tspan class="cls-2"><tspan x="0" y="89.43">C</tspan><tspan class="cls-11" x="22.51" y="89.43">r</tspan><tspan x="35.11" y="89.43">e</tspan><tspan class="cls-17" x="55.87" y="89.43">a</tspan><tspan class="cls-8" x="74.91" y="89.43">t</tspan><tspan class="cls-4" x="90.41" y="89.43">ed in 20</tspan><tspan class="cls-12" x="225.5" y="89.43">0</tspan><tspan class="cls-5" x="247.35" y="89.43">7</tspan><tspan class="cls-18" x="264.81" y="89.43">,</tspan><tspan x="272.46" y="89.43" xml:space="preserve"> these </tspan><tspan class="cls-27" x="388.12" y="89.43">w</tspan><tspan class="cls-4" x="415.86" y="89.43">or</tspan><tspan class="cls-14" x="450.75" y="89.43">k</tspan><tspan x="469.16" y="89.43">s in viol</tspan><tspan class="cls-10" x="593.52" y="89.43">e</tspan><tspan x="613.58" y="89.43">t ch</tspan><tspan class="cls-12" x="681.19" y="89.43">r</tspan><tspan x="693.78" y="89.43">ome and bl</tspan><tspan class="cls-15" x="879.83" y="89.43">a</tspan><tspan x="899.5" y="89.43">ck </tspan></tspan><tspan class="cls-2"><tspan x="0" y="131.51">ti</tspan><tspan class="cls-32" x="24.72" y="131.51">t</tspan><tspan x="40.75" y="131.51">anium </tspan><tspan class="cls-31" x="151.64" y="131.51">t</tspan><tspan x="167.67" y="131.51">a</tspan><tspan class="cls-22" x="187.83" y="131.51">k</tspan><tspan x="205.79" y="131.51">e fun</tspan><tspan class="cls-10" x="294.02" y="131.51">c</tspan><tspan x="314.29" y="131.51">tionalism </tspan><tspan class="cls-12" x="477.19" y="131.51">t</tspan><tspan x="492.69" y="131.51">o the absu</tspan><tspan class="cls-7" x="673.48" y="131.51">r</tspan><tspan x="686.07" y="131.51">d</tspan><tspan class="cls-18" x="708.65" y="131.51">,</tspan><tspan x="716.3" y="131.51"> </tspan><tspan class="cls-12" x="725.31" y="131.51">r</tspan><tspan class="cls-3" x="737.9" y="131.51">endering </tspan></tspan><tspan class="cls-2"><tspan x="0" y="173.6">obje</tspan><tspan class="cls-10" x="73.68" y="173.6">c</tspan><tspan x="93.95" y="173.6">ts u</tspan><tspan class="cls-28" x="159.04" y="173.6">n</tspan><tspan x="180.26" y="173.6">u</tspan><tspan class="cls-24" x="201.72" y="173.6">s</tspan><tspan x="220.06" y="173.6">abl</tspan><tspan class="cls-29" x="271.4" y="173.6">e</tspan><tspan class="cls-19" x="291.92" y="173.6">.</tspan><tspan class="cls-21" x="299.64" y="173.6"> </tspan><tspan x="307.74" y="173.6">Th</tspan><tspan class="cls-12" x="349.86" y="173.6">r</tspan><tspan class="cls-4" x="362.45" y="173.6">ough closed </tspan><tspan class="cls-6" x="580.68" y="173.6">f</tspan><tspan x="595.34" y="173.6">orms and a</tspan><tspan class="cls-13" x="781.32" y="173.6">r</tspan><tspan x="793.94" y="173.6">abesques</tspan><tspan class="cls-18" x="959.22" y="173.6">,</tspan><tspan x="966.87" y="173.6" xml:space="preserve"> </tspan></tspan><tspan class="cls-2"><tspan class="cls-26" x="0" y="215.68">T</tspan><tspan class="cls-4" x="20.31" y="215.68">im N</tspan><tspan class="cls-27" x="91.36" y="215.68">e</tspan><tspan class="cls-23" x="111.77" y="215.68">w</tspan><tspan x="139.68" y="215.68">son que</tspan><tspan class="cls-25" x="275.16" y="215.68">s</tspan><tspan x="293.25" y="215.68">tions our obsession with </tspan><tspan class="cls-9" x="718.58" y="215.68">e</tspan><tspan class="cls-3" x="738.64" y="215.68">fficiency and </tspan></tspan><tspan class="cls-2"><tspan x="0" y="257.76">d</tspan><tspan class="cls-10" x="22.58" y="257.76">e</tspan><tspan class="cls-4" x="42.65" y="257.76">fle</tspan><tspan class="cls-10" x="86.66" y="257.76">c</tspan><tspan x="106.93" y="257.76">ts the </tspan><tspan class="cls-18" x="217.96" y="257.76">e</tspan><tspan class="cls-4" x="237.56" y="257.76">xpe</tspan><tspan class="cls-10" x="301.7" y="257.76">c</tspan><tspan class="cls-31" x="321.97" y="257.76">t</tspan><tspan class="cls-17" x="338" y="257.76">a</tspan><tspan x="357.04" y="257.76">tions </tspan><tspan class="cls-10" x="452.43" y="257.76">o</tspan><tspan x="473.41" y="257.76">f utili</tspan><tspan class="cls-30" x="561.29" y="257.76">t</tspan><tspan x="577.32" y="257.76">arian design</tspan><tspan class="cls-20" x="784.4" y="257.76">.</tspan></tspan></text>
  </g>
</svg>