<?xml version="1.0" encoding="UTF-8"?>
<svg id="Calque_2" data-name="Calque 2" xmlns="http://www.w3.org/2000/svg" viewBox="0 0 1217.6 231.85">
  <defs>
    <style>
      .cls-1 {
        fill: #f3fbff;
      }

      .cls-2 {
        fill: #1f1866;
        font-family: SpaceGrotesk-Bold, 'Space Grotesk';
        font-size: 50px;
        font-variation-settings: 'wght' 700;
        font-weight: 700;
      }

      .cls-3 {
        fill: none;
        stroke: #1f1866;
        stroke-linejoin: round;
        stroke-width: 8.63px;
      }

      .cls-4 {
        letter-spacing: 0em;
      }
    </style>
  </defs>
  <g id="Calque_1-2" data-name="Calque 1">
    <path class="cls-1" d="M10,231.85h1197.6c5.52,0,10-2.19,10-4.89V4.89c0-2.7-4.48-4.89-10-4.89H143.8c-4.86,0-9.02,1.71-9.85,4.05l-31,87.15c-.83,2.34-4.99,4.05-9.85,4.05h-31.93c-4.78,0-8.89,1.65-9.81,3.94L.19,226.01c-1.22,3.02,3.51,5.83,9.81,5.83Z"/>
    <text class="cls-2" transform="translate(409.08 130.32)"><tspan x="0" y="0">@StudioN</tspan><tspan class="cls-4" x="243.9" y="0">e</tspan><tspan x="272.65" y="0">wson</tspan></text>
    <g>
      <path class="cls-3" d="M999.97,115.92c0-23.05,0-34.57,7.16-41.73,7.16-7.16,18.68-7.16,41.73-7.16s34.57,0,41.73,7.16c7.16,7.16,7.16,18.68,7.16,41.73s0,34.57-7.16,41.73c-7.16,7.16-18.68,7.16-41.73,7.16s-34.57,0-41.73-7.16c-7.16-7.16-7.16-18.68-7.16-41.73Z"/>
      <path class="cls-3" d="M1021.84,115.85v-15.34c0-1.45,1.19-2.63,2.66-2.63h10.18c2.26,0,4.59.39,6.28,1.88,1.8,1.59,3.56,4.06,3.47,7.37-.1,3.85-2.91,8.4-7.03,8.72-4.12.32-7.99,0-15.55,0ZM1021.84,115.85v15.35c0,1.45,1.19,2.63,2.66,2.64,5.87.06,9.29.26,12.89-.01,4.12-.32,6.93-4.87,7.03-8.72.09-3.3-1.66-5.77-3.47-7.37-1.69-1.49-4.01-1.88-6.28-1.88h-12.84ZM1073.54,131.19c-2.26,2.19-13.24,6.5-17.2-4.86-.41-1.13-.74-3.58-.55-5.47M1055.79,120.85c.33-3.22,1.75-7.74,7.02-9.58,7.55-2.64,12.3,4.69,13.53,9.58h-20.55ZM1062.18,100.49h7"/>
    </g>
  </g>
</svg>