<?xml version="1.0" encoding="UTF-8"?>
<svg id="Calque_2" data-name="Calque 2" xmlns="http://www.w3.org/2000/svg" viewBox="0 0 1217.6 231.85">
  <defs>
    <style>
      .cls-1 {
        fill: #f3fbff;
      }

      .cls-2 {
        fill: #1f1866;
        font-family: SpaceGrotesk-Bold, 'Space Grotesk';
        font-size: 50px;
        font-variation-settings: 'wght' 700;
        font-weight: 700;
      }

      .cls-3 {
        fill: none;
        stroke: #1f1866;
        stroke-linejoin: round;
        stroke-width: 8.63px;
      }

      .cls-4 {
        letter-spacing: 0em;
      }

      .cls-5 {
        letter-spacing: 0em;
      }
    </style>
  </defs>
  <g id="Calque_1-2" data-name="Calque 1">
    <path class="cls-1" d="M1207.6,231.85H10c-5.52,0-10-2.19-10-4.89V4.89C0,2.19,4.48,0,10,0h1063.8c4.86,0,9.02,1.71,9.85,4.05l31,87.15c.83,2.34,4.99,4.05,9.85,4.05h31.93c4.78,0,8.89,1.65,9.81,3.94l51.17,126.83c1.22,3.02-3.51,5.83-9.81,5.83Z"/>
    <path class="cls-3" d="M95.09,81.41l39.76,22.53c14.66,8.31,20.85,8.31,35.51,0l39.76-22.53"/>
    <path class="cls-3" d="M95.18,124.41c.38,17.63.56,26.45,7.07,32.98,6.51,6.53,15.56,6.76,33.67,7.21,11.16.28,22.21.28,33.38,0,18.11-.45,27.16-.68,33.67-7.21,6.51-6.53,6.69-15.35,7.07-32.98.12-5.67.12-11.31,0-16.98-.38-17.63-.56-26.45-7.07-32.98-6.51-6.53-15.56-6.76-33.67-7.21-11.16-.28-22.21-.28-33.38,0-18.11.45-27.17.68-33.67,7.21-6.51,6.53-6.69,15.35-7.07,32.98-.12,5.67-.12,11.31,0,16.98Z"/>
    <text class="cls-2" transform="translate(288.53 130.32)"><tspan x="0" y="0">tim.n</tspan><tspan class="cls-5" x="124.5" y="0">e</tspan><tspan x="153.25" y="0">wson@oddmail</tspan><tspan class="cls-4" x="523.34" y="0">.</tspan><tspan x="537.94" y="0">com</tspan></text>
  </g>
</svg>