<?xml version="1.0" encoding="UTF-8"?>
<svg id="Calque_2" data-name="Calque 2" xmlns="http://www.w3.org/2000/svg" viewBox="0 0 1217.6 305.64">
  <defs>
    <style>
      .cls-1 {
        fill: #f3fbff;
      }

      .cls-2 {
        letter-spacing: 0em;
      }

      .cls-3 {
        fill: #1f1866;
        font-family: SpaceGrotesk-Bold, 'Space Grotesk';
        font-size: 50px;
        font-variation-settings: 'wght' 700;
        font-weight: 700;
      }

      .cls-4 {
        fill: none;
        stroke: #1f1866;
        stroke-linejoin: round;
        stroke-width: 8.63px;
      }

      .cls-5 {
        letter-spacing: -.01em;
      }
    </style>
  </defs>
  <g id="Calque_1-2" data-name="Calque 1">
    <path class="cls-1" d="M1217.6,300.76c0,.19-.02.38-.07.56-.01.06-.03.12-.05.18-.01.04-.02.07-.03.11-.05.12-.1.23-.16.35-.04.09-.09.17-.14.25-.1.14-.2.28-.32.42-.05.07-.12.15-.2.22-.2.21-.44.42-.71.61-.18.13-.37.26-.57.38-.31.19-.64.36-1,.51-.23.11-.47.21-.73.3-.13.06-.26.1-.39.14-.09.03-.17.06-.26.08-.49.16-1.02.3-1.58.41-.25.05-.52.1-.79.14-.5.07-1.02.13-1.55.17-.31.02-.62.04-.94.04-.17.01-.34.01-.51.01H10c-.18,0-.36,0-.53-.01-.3,0-.6-.02-.89-.04-.53-.04-1.05-.09-1.55-.17-.31-.04-.62-.1-.91-.16-.02,0-.04-.01-.06-.01-.28-.06-.56-.13-.83-.2-1.62-.43-2.96-1.07-3.87-1.84-.13-.11-.26-.22-.37-.33-.38-.39-.65-.79-.81-1.21-.06-.13-.1-.27-.13-.41-.04-.17-.05-.34-.05-.5,0-.32.06-.63.19-.95l51.17-126.82c.92-2.29,5.03-3.95,9.81-3.95h31.93c4.86,0,9.02-1.71,9.85-4.05l31-87.14c.83-2.34,4.99-4.05,9.85-4.05h930c4.86,0,9.02,1.71,9.85,4.05l31,87.14c.83,2.34,4.99,4.05,9.85,4.05h31.93c4.78,0,8.89,1.66,9.81,3.95l51.17,126.82c.13.32.19.64.19.95Z"/>
    <text class="cls-3" transform="translate(409.08 204.12)"><tspan x="0" y="0">@</tspan><tspan class="cls-5" x="50.7" y="0">T</tspan><tspan class="cls-2" x="79.5" y="0">imAginarium</tspan></text>
    <rect class="cls-1" x="511.67" width="194.26" height="94.87" rx="10" ry="10"/>
    <g>
      <path class="cls-4" d="M559.91,73.8c0-23.05,0-34.57,7.16-41.73,7.16-7.16,18.68-7.16,41.73-7.16s34.57,0,41.73,7.16c7.16,7.16,7.16,18.68,7.16,41.73s0,34.57-7.16,41.73c-7.16,7.16-18.68,7.16-41.73,7.16s-34.57,0-41.73-7.16c-7.16-7.16-7.16-18.68-7.16-41.73Z"/>
      <path class="cls-4" d="M631.96,73.8c0,12.79-10.37,23.16-23.16,23.16s-23.16-10.37-23.16-23.16,10.37-23.16,23.16-23.16,23.16,10.37,23.16,23.16Z"/>
      <path class="cls-4" d="M637.15,45.49h-.05"/>
    </g>
  </g>
</svg>