<?xml version="1.0" encoding="UTF-8"?>
<svg id="Calque_2" data-name="Calque 2" xmlns="http://www.w3.org/2000/svg" viewBox="0 0 1217.6 474.35">
  <defs>
    <style>
      .cls-1 {
        letter-spacing: 0em;
      }

      .cls-2 {
        fill: #f3fbff;
      }

      .cls-3 {
        font-family: SpaceGrotesk-Regular, 'Space Grotesk';
        font-size: 35.07px;
        font-variation-settings: 'wght' 400;
      }

      .cls-4 {
        font-family: MyriadPro-Regular, 'Myriad Pro';
      }

      .cls-4, .cls-5 {
        font-size: 39.45px;
      }

      .cls-6 {
        letter-spacing: 0em;
      }

      .cls-7 {
        letter-spacing: 0em;
      }

      .cls-8 {
        letter-spacing: 0em;
      }

      .cls-9 {
        letter-spacing: 0em;
      }

      .cls-10 {
        letter-spacing: -.07em;
      }

      .cls-11 {
        letter-spacing: -.02em;
      }

      .cls-12 {
        letter-spacing: -.02em;
      }

      .cls-13 {
        letter-spacing: -.02em;
      }

      .cls-14 {
        letter-spacing: -.02em;
      }

      .cls-15 {
        letter-spacing: -.02em;
      }

      .cls-16 {
        letter-spacing: -.02em;
      }

      .cls-17 {
        letter-spacing: -.02em;
      }

      .cls-18 {
        letter-spacing: -.02em;
      }

      .cls-19 {
        letter-spacing: -.02em;
      }

      .cls-20 {
        letter-spacing: -.02em;
      }

      .cls-21 {
        letter-spacing: -.01em;
      }

      .cls-22 {
        letter-spacing: -.01em;
      }

      .cls-23 {
        letter-spacing: -.02em;
      }

      .cls-24 {
        letter-spacing: -.01em;
      }

      .cls-25 {
        letter-spacing: -.01em;
      }

      .cls-26 {
        letter-spacing: -.03em;
      }

      .cls-27 {
        letter-spacing: -.03em;
      }

      .cls-28 {
        letter-spacing: -.03em;
      }

      .cls-29 {
        letter-spacing: -.03em;
      }

      .cls-30 {
        letter-spacing: 0em;
      }

      .cls-31 {
        letter-spacing: 0em;
      }

      .cls-32 {
        letter-spacing: 0em;
      }

      .cls-33 {
        letter-spacing: -.01em;
      }

      .cls-34 {
        letter-spacing: -.01em;
      }

      .cls-35 {
        letter-spacing: -.01em;
      }

      .cls-36 {
        letter-spacing: 0em;
      }

      .cls-37 {
        letter-spacing: 0em;
      }

      .cls-38 {
        letter-spacing: 0em;
      }

      .cls-39 {
        letter-spacing: 0em;
      }

      .cls-40 {
        letter-spacing: 0em;
      }

      .cls-41 {
        letter-spacing: 0em;
      }

      .cls-42 {
        letter-spacing: 0em;
      }

      .cls-43 {
        letter-spacing: 0em;
      }

      .cls-44 {
        letter-spacing: 0em;
      }

      .cls-5 {
        fill: #1f1866;
        font-family: SpaceGrotesk-Bold, 'Space Grotesk';
        font-variation-settings: 'wght' 700;
        font-weight: 700;
      }
    </style>
  </defs>
  <g id="Calque_1-2" data-name="Calque 1">
    <path class="cls-2" d="M1207.6,474.35H10c-5.52,0-10-4.48-10-10V10C0,4.48,4.48,0,10,0h1063.8c4.86,0,9.02,3.5,9.85,8.29l31,178.3c.83,4.79,4.99,8.29,9.85,8.29h31.93c4.78,0,8.89,3.38,9.81,8.07l51.17,259.48c1.22,6.18-3.51,11.93-9.81,11.93Z"/>
    <text transform="translate(107.23 99.21)"><tspan class="cls-5"><tspan class="cls-10" x="0" y="0">T</tspan><tspan class="cls-34" x="20.52" y="0">r</tspan><tspan x="35.67" y="0">an</tspan><tspan class="cls-38" x="82.77" y="0">s</tspan><tspan x="103.05" y="0">figu</tspan><tspan class="cls-17" x="179.12" y="0">r</tspan><tspan class="cls-7" x="194.03" y="0">ed Dome</tspan><tspan class="cls-39" x="358.87" y="0">s</tspan><tspan class="cls-7" x="379.15" y="0">tic Relics </tspan></tspan><tspan class="cls-4"><tspan x="0" y="47.34"> </tspan></tspan><tspan class="cls-3"><tspan x="0" y="89.43">Using </tspan><tspan class="cls-18" x="103.45" y="89.43">r</tspan><tspan x="116.04" y="89.43">esin</tspan><tspan class="cls-27" x="185.38" y="89.43">,</tspan><tspan x="193.02" y="89.43"> </tspan><tspan class="cls-18" x="202.04" y="89.43">r</tspan><tspan x="214.63" y="89.43">ecycled gl</tspan><tspan class="cls-32" x="390.85" y="89.43">a</tspan><tspan class="cls-9" x="410.88" y="89.43">ss and cry</tspan><tspan class="cls-35" x="585.77" y="89.43">s</tspan><tspan class="cls-43" x="603.86" y="89.43">t</tspan><tspan class="cls-8" x="619.89" y="89.43">als</tspan><tspan class="cls-27" x="667.13" y="89.43">,</tspan><tspan class="cls-29" x="674.77" y="89.43"> </tspan><tspan class="cls-36" x="682.88" y="89.43">T</tspan><tspan class="cls-8" x="703.18" y="89.43">im N</tspan><tspan class="cls-37" x="774.23" y="89.43">e</tspan><tspan class="cls-30" x="794.64" y="89.43">w</tspan><tspan class="cls-8" x="822.56" y="89.43">son </tspan></tspan><tspan class="cls-3"><tspan x="0" y="131.51">sublim</tspan><tspan class="cls-26" x="109.87" y="131.51">a</tspan><tspan class="cls-18" x="128.92" y="131.51">t</tspan><tspan x="144.42" y="131.51">es </tspan><tspan class="cls-15" x="192.67" y="131.51">ev</tspan><tspan x="230.93" y="131.51">eryd</tspan><tspan class="cls-21" x="308.96" y="131.51">a</tspan><tspan class="cls-1" x="328.67" y="131.51">y furnitu</tspan><tspan class="cls-18" x="477.02" y="131.51">r</tspan><tspan x="489.61" y="131.51">e i</tspan><tspan class="cls-24" x="527.97" y="131.51">n</tspan><tspan class="cls-18" x="548.98" y="131.51">t</tspan><tspan class="cls-8" x="564.48" y="131.51">o absu</tspan><tspan class="cls-12" x="677.86" y="131.51">r</tspan><tspan x="690.45" y="131.51">d</tspan><tspan class="cls-27" x="713.04" y="131.51">,</tspan><tspan x="720.68" y="131.51" xml:space="preserve"> in</tspan><tspan class="cls-22" x="759.78" y="131.51">a</tspan><tspan x="779.46" y="131.51">ccessible </tspan></tspan><tspan class="cls-3"><tspan x="0" y="173.6">arti</tspan><tspan class="cls-36" x="58.11" y="173.6">f</tspan><tspan class="cls-25" x="73.3" y="173.6">a</tspan><tspan class="cls-15" x="92.97" y="173.6">c</tspan><tspan x="113.24" y="173.6">ts</tspan><tspan class="cls-27" x="147.85" y="173.6">.</tspan><tspan class="cls-28" x="155.57" y="173.6"> </tspan><tspan x="163.67" y="173.6">These scul</tspan><tspan class="cls-13" x="344.31" y="173.6">p</tspan><tspan x="366.2" y="173.6">tu</tspan><tspan class="cls-18" x="403.79" y="173.6">r</tspan><tspan x="416.38" y="173.6">es </tspan><tspan class="cls-31" x="464.64" y="173.6">(</tspan><tspan class="cls-6" x="477.75" y="173.6">2020-2022) t</tspan><tspan class="cls-19" x="705.25" y="173.6">r</tspan><tspan x="717.88" y="173.6">an</tspan><tspan class="cls-35" x="759.54" y="173.6">s</tspan><tspan class="cls-11" x="777.63" y="173.6">f</tspan><tspan x="792.29" y="173.6">orm </tspan></tspan><tspan class="cls-3"><tspan class="cls-36" x="0" y="215.68">f</tspan><tspan class="cls-9" x="15.19" y="215.68">amiliarity i</tspan><tspan class="cls-25" x="188.46" y="215.68">n</tspan><tspan class="cls-18" x="209.47" y="215.68">t</tspan><tspan class="cls-9" x="224.97" y="215.68">o </tspan><tspan class="cls-35" x="255.66" y="215.68">s</tspan><tspan x="273.75" y="215.68">t</tspan><tspan class="cls-20" x="289.89" y="215.68">r</tspan><tspan x="302.51" y="215.68">angeness,</tspan><tspan class="cls-12" x="475.47" y="215.68">r</tspan><tspan class="cls-15" x="488.06" y="215.68">ev</tspan><tspan class="cls-6" x="526.33" y="215.68">ealing the </tspan><tspan class="cls-23" x="704.86" y="215.68">v</tspan><tspan x="723.21" y="215.68">anity </tspan><tspan class="cls-14" x="820.07" y="215.68">o</tspan><tspan x="841.04" y="215.68">f obje</tspan><tspan class="cls-15" x="939.23" y="215.68">c</tspan><tspan x="959.5" y="215.68">ts </tspan></tspan><tspan class="cls-3"><tspan x="0" y="257.76">th</tspan><tspan class="cls-18" x="37.63" y="257.76">r</tspan><tspan class="cls-9" x="50.22" y="257.76">ough a </tspan><tspan class="cls-40" x="175.56" y="257.76">h</tspan><tspan x="196.78" y="257.76">ybrid </tspan><tspan class="cls-22" x="294.23" y="257.76">a</tspan><tspan x="313.91" y="257.76">e</tspan><tspan class="cls-33" x="334.67" y="257.76">s</tspan><tspan x="352.77" y="257.76">th</tspan><tspan class="cls-15" x="390.4" y="257.76">e</tspan><tspan x="410.46" y="257.76">ti</tspan><tspan class="cls-42" x="435.18" y="257.76">c</tspan><tspan class="cls-27" x="455.91" y="257.76">,</tspan><tspan class="cls-1" x="463.55" y="257.76" xml:space="preserve"> b</tspan><tspan class="cls-14" x="495.15" y="257.76">e</tspan><tspan x="515.21" y="257.76">t</tspan><tspan class="cls-37" x="531.34" y="257.76">w</tspan><tspan x="559.08" y="257.76">een illusory luxury and </tspan></tspan><tspan class="cls-3"><tspan x="0" y="299.85">g</tspan><tspan class="cls-16" x="22.51" y="299.85">r</tspan><tspan class="cls-15" x="35.11" y="299.85">o</tspan><tspan class="cls-18" x="56.08" y="299.85">t</tspan><tspan x="71.58" y="299.85">esque </tspan><tspan class="cls-41" x="184.64" y="299.85">m</tspan><tspan x="214.52" y="299.85">u</tspan><tspan class="cls-44" x="235.98" y="299.85">t</tspan><tspan class="cls-26" x="252.01" y="299.85">a</tspan><tspan x="271.05" y="299.85">tion</tspan><tspan class="cls-27" x="338.95" y="299.85">.</tspan></tspan></text>
  </g>
</svg>